<svg width="512" height="512" viewBox="0 0 512 512" fill="none" xmlns="http://www.w3.org/2000/svg">
    <path d="M384 368H408C418.599 367.968 428.755 363.744 436.249 356.249C443.744 348.755 447.968 338.599 448 328V168C447.968 157.401 443.744 147.245 436.249 139.751C428.755 132.256 418.599 128.032 408 128H104C93.4011 128.032 83.2453 132.256 75.7507 139.751C68.2561 147.245 64.0317 157.401 64 168V328C64.0317 338.599 68.2561 348.755 75.7507 356.249C83.2453 363.744 93.4011 367.968 104 368H128"
          stroke="currentColor" stroke-width="32" stroke-linejoin="round"/>
    <path d="M359.68 240H152.32C138.888 240 128 250.888 128 264.32V423.68C128 437.112 138.888 448 152.32 448H359.68C373.112 448 384 437.112 384 423.68V264.32C384 250.888 373.112 240 359.68 240Z"
          stroke="currentColor" stroke-width="32" stroke-linejoin="round"/>
    <path d="M384 128V104C383.968 93.4011 379.744 83.2453 372.249 75.7507C364.755 68.2561 354.599 64.0317 344 64H168C157.401 64.0317 147.245 68.2561 139.751 75.7507C132.256 83.2453 128.032 93.4011 128 104V128"
          stroke="currentColor" stroke-width="32" stroke-linejoin="round"/>
    <path d="M392 208C405.255 208 416 197.255 416 184C416 170.745 405.255 160 392 160C378.745 160 368 170.745 368 184C368 197.255 378.745 208 392 208Z"
          fill="currentColor"/>
    <path d="M324.42 316.821C322.062 314.308 319.206 312.315 316.034 310.969C312.863 309.623 309.445 308.953 306 309.003C298.752 309.003 292.197 311.759 287.542 316.771C282.887 321.783 280.544 328.721 281.081 336.145C282.15 350.82 293.328 362.751 306 362.751C318.672 362.751 329.831 350.82 330.912 336.158C331.462 328.796 329.15 321.927 324.42 316.821ZM348.295 418.999H263.705C262.603 419.017 261.512 418.792 260.507 418.342C259.501 417.892 258.607 417.226 257.887 416.393C257.107 415.457 256.546 414.358 256.248 413.177C255.949 411.996 255.92 410.762 256.163 409.568C258.193 398.593 264.523 389.375 274.471 382.906C283.306 377.163 294.503 374 306 374C317.497 374 328.694 377.163 337.529 382.906C347.477 389.375 353.807 398.593 355.837 409.568C356.08 410.762 356.051 411.996 355.752 413.177C355.454 414.358 354.893 415.457 354.113 416.393C353.393 417.226 352.499 417.892 351.493 418.342C350.488 418.792 349.397 419.017 348.295 418.999Z"
          fill="currentColor"/>
</svg>
